<?xml version="1.0" standalone="no"?>
<!DOCTYPE svg PUBLIC "-//W3C//DTD SVG 20010904//EN"
 "http://www.w3.org/TR/2001/REC-SVG-20010904/DTD/svg10.dtd">
<svg version="1.0" xmlns="http://www.w3.org/2000/svg"
 width="800.000000pt" height="520.000000pt" viewBox="0 0 800.000000 520.000000"
 preserveAspectRatio="xMidYMid meet">

<g transform="translate(0.000000,520.000000) scale(0.100000,-0.100000)"
fill="#000000" stroke="none">
<path d="M1185 5170 c-13 -21 12 -31 71 -28 44 2 59 7 59 18 0 19 -119 28
-130 10z"/>
<path d="M1410 5160 c0 -19 5 -21 63 -18 47 2 62 7 62 18 0 11 -15 16 -62 18
-58 3 -63 1 -63 -18z"/>
<path d="M1625 5170 c-13 -21 12 -31 71 -28 44 2 59 7 59 18 0 19 -119 28
-130 10z"/>
<path d="M1845 5170 c-13 -20 8 -30 65 -30 40 0 59 4 63 14 3 8 3 17 0 20 -10
10 -121 7 -128 -4z"/>
<path d="M2065 5170 c-13 -21 12 -31 71 -28 44 2 59 7 59 18 0 19 -119 28
-130 10z"/>
<path d="M2285 5170 c-13 -20 8 -30 65 -30 40 0 59 4 63 14 3 8 3 17 0 20 -10
10 -121 7 -128 -4z"/>
<path d="M2505 5170 c-13 -21 12 -31 71 -28 44 2 59 7 59 18 0 19 -119 28
-130 10z"/>
<path d="M2725 5170 c-13 -21 12 -31 71 -28 44 2 59 7 59 18 0 19 -119 28
-130 10z"/>
<path d="M2945 5170 c-13 -21 12 -31 71 -28 44 2 59 7 59 18 0 19 -119 28
-130 10z"/>
<path d="M3165 5170 c-13 -20 8 -30 65 -30 40 0 59 4 63 14 3 8 3 17 0 20 -10
10 -121 7 -128 -4z"/>
<path d="M3382 5163 c3 -15 16 -19 66 -21 57 -3 62 -1 62 18 0 18 -6 20 -66
20 -57 0 -65 -2 -62 -17z"/>
<path d="M3605 5170 c-13 -21 12 -31 71 -28 44 2 59 7 59 18 0 19 -119 28
-130 10z"/>
<path d="M3822 5163 c3 -15 14 -18 68 -18 54 0 65 3 68 18 3 15 -5 17 -68 17
-63 0 -71 -2 -68 -17z"/>
<path d="M4045 5169 c-12 -19 17 -29 75 -27 41 2 55 7 55 18 0 19 -119 28
-130 9z"/>
<path d="M4272 5163 c3 -15 14 -18 63 -18 49 0 60 3 63 18 3 15 -5 17 -63 17
-58 0 -66 -2 -63 -17z"/>
<path d="M4485 5170 c-13 -21 12 -31 71 -28 44 2 59 7 59 18 0 19 -119 28
-130 10z"/>
<path d="M4705 5170 c-13 -21 12 -31 71 -28 44 2 59 7 59 18 0 19 -119 28
-130 10z"/>
<path d="M4925 5170 c-13 -21 12 -31 71 -28 44 2 59 7 59 18 0 19 -119 28
-130 10z"/>
<path d="M5145 5170 c-13 -21 12 -31 71 -28 44 2 59 7 59 18 0 19 -119 28
-130 10z"/>
<path d="M5362 5163 c3 -15 14 -18 68 -18 51 0 65 3 65 15 0 12 -16 16 -68 18
-62 3 -68 1 -65 -15z"/>
<path d="M5585 5170 c-13 -21 12 -31 71 -28 44 2 59 7 59 18 0 19 -119 28
-130 10z"/>
<path d="M5807 5172 c-14 -22 12 -33 69 -30 44 2 59 7 59 18 0 11 -15 16 -62
18 -34 2 -64 -1 -66 -6z"/>
<path d="M6025 5170 c-13 -21 12 -31 71 -28 44 2 59 7 59 18 0 19 -119 28
-130 10z"/>
<path d="M6245 5170 c-13 -21 8 -30 66 -30 52 0 59 2 59 20 0 18 -7 20 -59 20
-33 0 -63 -4 -66 -10z"/>
<path d="M6462 5163 c3 -15 14 -18 68 -18 51 0 65 3 65 15 0 12 -16 16 -68 18
-62 3 -68 1 -65 -15z"/>
<path d="M6685 5170 c-13 -21 12 -31 71 -28 44 2 59 7 59 18 0 19 -119 28
-130 10z"/>
<path d="M1022 5158 c-42 -8 -52 -13 -50 -26 4 -17 23 -19 96 -6 23 3 32 10
32 24 0 22 -1 22 -78 8z"/>
<path d="M6895 5160 c-8 -13 29 -27 85 -31 35 -3 45 -1 48 12 2 10 -6 19 -20
23 -36 9 -106 7 -113 -4z"/>
<path d="M7110 5115 c0 -8 12 -17 28 -21 15 -3 40 -10 56 -15 40 -13 46 -12
46 9 0 11 -13 21 -40 30 -54 16 -90 16 -90 -3z"/>
<path d="M808 5103 c-46 -15 -62 -38 -35 -48 19 -8 112 31 115 49 4 20 -18 20
-80 -1z"/>
<path d="M7321 5056 c-13 -16 -9 -19 62 -60 41 -24 48 -25 53 -11 8 19 4 23
-57 58 -39 22 -49 24 -58 13z"/>
<path d="M611 5019 c-51 -29 -60 -42 -40 -54 13 -9 119 46 119 61 0 24 -29 21
-79 -7z"/>
<path d="M7496 4941 c-7 -11 83 -91 102 -91 25 0 10 36 -30 68 -41 32 -62 39
-72 23z"/>
<path d="M428 4902 c-50 -40 -56 -49 -34 -58 19 -7 106 57 103 75 -4 25 -21
21 -69 -17z"/>
<path d="M270 4753 c-33 -37 -38 -49 -28 -60 10 -13 19 -8 55 30 46 49 51 62
28 70 -9 4 -29 -11 -55 -40z"/>
<path d="M7655 4790 c-7 -11 63 -105 79 -105 22 0 16 32 -16 73 -32 41 -51 51
-63 32z"/>
<path d="M2540 4645 c0 -3 12 -22 28 -44 15 -21 36 -57 46 -79 11 -23 23 -42
28 -42 4 0 8 -4 8 -9 0 -8 24 -52 77 -139 12 -21 32 -56 44 -79 13 -24 26 -43
29 -43 4 0 6 -83 6 -185 l-1 -186 45 3 45 3 1 115 c1 258 0 250 42 316 21 32
49 79 63 104 13 24 32 52 42 62 9 10 17 22 17 27 0 5 6 16 14 23 8 8 26 37 40
64 14 27 33 59 42 72 16 22 16 22 -28 22 -38 0 -45 -3 -55 -27 -7 -16 -18 -37
-25 -48 -52 -78 -105 -163 -111 -175 -4 -8 -16 -30 -27 -48 -16 -26 -18 -37
-9 -54 11 -20 9 -20 -26 -14 -25 5 -35 4 -30 -3 3 -6 12 -11 18 -11 9 0 11
-47 9 -187 -2 -104 -5 -194 -8 -202 -9 -26 -16 -3 -20 66 -7 106 -6 123 3 201
8 68 3 97 -12 72 -10 -16 -25 -11 -25 9 0 10 -9 29 -19 43 -11 13 -23 38 -27
54 -4 16 -18 40 -31 53 -12 13 -23 30 -23 37 0 24 30 15 40 -11 5 -14 14 -25
19 -25 7 0 21 -41 25 -75 1 -5 9 -11 19 -13 11 -2 17 3 17 15 0 23 -22 73 -32
73 -5 0 -8 6 -8 14 0 8 -6 21 -12 28 -7 8 -19 24 -26 37 -33 56 -55 98 -79
143 l-25 48 -54 0 c-30 0 -54 -2 -54 -5z m119 -77 c12 -27 8 -48 -9 -48 -5 0
-12 10 -16 23 -4 12 -15 33 -25 46 -10 13 -16 27 -13 32 8 13 49 -22 63 -53z
m378 -70 c-3 -8 -6 -5 -6 6 -1 11 2 17 5 13 3 -3 4 -12 1 -19z m-333 -17 c16
-29 13 -41 -11 -41 -7 0 -13 9 -13 19 0 11 -4 23 -10 26 -15 9 -12 25 5 25 8
0 21 -13 29 -29z m256 -111 c0 -5 -5 -10 -11 -10 -5 0 -7 5 -4 10 3 6 8 10 11
10 2 0 4 -4 4 -10z"/>
<path d="M3545 4640 c-3 -5 -19 -10 -34 -10 -43 0 -91 -28 -151 -89 -72 -74
-92 -129 -97 -279 -4 -97 -1 -121 18 -175 29 -81 58 -127 106 -164 52 -41 77
-53 111 -53 16 0 35 -7 42 -15 8 -10 31 -15 70 -15 39 0 62 5 70 15 7 8 28 15
47 15 42 0 99 28 142 72 40 39 91 145 91 187 0 16 5 33 10 36 6 3 10 39 10 80
0 41 -4 77 -10 80 -5 3 -10 21 -10 40 0 61 -74 195 -107 195 -7 0 -13 4 -13 9
0 15 -91 61 -121 61 -15 0 -31 5 -34 10 -3 6 -35 10 -70 10 -35 0 -67 -4 -70
-10z m115 -20 c11 -7 -2 -10 -42 -10 -32 0 -58 4 -58 10 0 13 80 13 100 0z
m-165 -30 c-3 -5 -10 -10 -16 -10 -5 0 -9 5 -9 10 0 6 7 10 16 10 8 0 12 -4 9
-10z m270 0 c3 -5 -3 -10 -14 -10 -11 0 -23 5 -26 10 -3 6 3 10 14 10 11 0 23
-4 26 -10z m-43 -22 c62 -36 138 -132 138 -175 0 -8 7 -30 16 -48 24 -50 6
-237 -25 -268 -6 -6 -11 -19 -11 -29 0 -22 -83 -108 -104 -108 -7 0 -19 -7
-26 -15 -9 -11 -33 -15 -87 -15 -81 0 -149 26 -188 72 -28 31 -65 102 -65 122
0 9 -4 16 -10 16 -17 0 -13 233 4 267 8 15 22 44 30 63 17 39 66 90 111 113
37 20 185 23 217 5z m-300 -20 c-12 -6 -25 -22 -28 -35 -4 -14 -14 -23 -26
-23 -18 0 -19 2 -7 18 22 28 53 52 69 51 9 0 6 -5 -8 -11z m407 -1 c6 -8 8
-17 4 -20 -7 -8 -33 11 -33 24 0 13 16 11 29 -4z m55 -59 c22 -25 30 -46 34
-90 3 -38 1 -58 -6 -58 -12 0 -17 14 -27 73 -3 21 -15 47 -26 58 -19 19 -26
49 -11 49 4 0 20 -15 36 -32z m-522 -33 c3 -14 1 -23 -6 -22 -5 1 -11 -5 -12
-13 -4 -45 -4 -45 -13 -32 -4 8 -7 23 -6 35 1 12 3 30 4 40 2 26 28 20 33 -8z
m-49 -92 c3 -10 5 -66 6 -125 0 -81 -3 -109 -14 -118 -13 -11 -15 6 -15 124 0
77 4 136 9 136 5 0 12 -8 14 -17z m638 -90 c2 -80 -1 -97 -17 -106 -8 -4 -14
-23 -14 -41 0 -53 -11 -96 -25 -96 -7 0 -16 -11 -19 -25 -4 -15 -17 -30 -32
-35 -14 -6 -23 -13 -20 -18 2 -4 -7 -13 -20 -19 -22 -10 -21 -7 10 28 20 21
36 44 36 50 0 7 7 17 17 24 10 8 18 32 21 69 3 42 9 59 23 67 16 8 19 22 19
84 0 88 19 104 21 18z m-595 -220 c8 -17 18 -33 23 -35 5 -2 13 -16 17 -32 5
-22 4 -28 -7 -24 -8 3 -15 14 -17 26 -2 12 -9 22 -17 22 -22 0 -43 53 -32 81
7 17 11 20 14 9 3 -8 11 -29 19 -47z m98 -118 c20 -15 20 -15 0 -15 -11 0 -29
7 -40 15 -19 14 -19 14 1 14 11 0 29 -6 39 -14z m66 -35 c11 -7 7 -10 -17 -10
-18 0 -33 5 -33 10 0 13 30 13 50 0z m225 0 c4 -6 -5 -10 -20 -10 -15 0 -24 4
-20 10 3 6 12 10 20 10 8 0 17 -4 20 -10z"/>
<path d="M4148 4343 c1 -170 6 -317 11 -328 5 -11 16 -36 24 -55 23 -51 73
-90 119 -90 13 0 32 -7 42 -15 26 -20 125 -19 150 0 11 8 31 15 44 15 40 0 67
19 108 76 27 39 41 189 43 452 l1 252 -36 0 -35 0 2 -286 c1 -203 -1 -288 -10
-297 -6 -6 -11 -25 -11 -42 0 -22 -9 -40 -32 -62 -49 -46 -70 -53 -148 -53
-61 0 -76 4 -105 26 -39 30 -69 76 -80 125 -5 19 -9 159 -9 312 l-1 277 -40 0
-40 0 3 -307z m512 197 c0 -5 -2 -10 -4 -10 -3 0 -8 5 -11 10 -3 6 -1 10 4 10
6 0 11 -4 11 -10z m-450 -485 c0 -13 5 -36 12 -50 8 -19 9 -28 0 -37 -15 -15
-39 46 -34 84 5 34 22 37 22 3z m427 -47 c-3 -8 -6 -5 -6 6 -1 11 2 17 5 13 3
-3 4 -12 1 -19z m-27 -57 c0 -12 -20 -25 -27 -18 -7 7 6 27 18 27 5 0 9 -4 9
-9z m-342 -18 c6 -19 -25 -16 -32 3 -4 11 -1 14 11 12 9 -2 18 -9 21 -15z m62
-33 c0 -5 -11 -10 -25 -10 -14 0 -25 5 -25 10 0 6 11 10 25 10 14 0 25 -4 25
-10z m220 0 c0 -5 -12 -10 -26 -10 -14 0 -23 4 -19 10 3 6 15 10 26 10 10 0
19 -4 19 -10z"/>
<path d="M4930 4255 c0 -217 0 -398 0 -402 0 -5 19 -8 43 -8 l42 0 -1 173 0
172 65 -1 66 0 66 -102 c37 -56 88 -135 114 -174 l47 -73 54 0 c51 0 72 14 39
26 -8 4 -15 11 -16 18 0 6 -16 31 -35 56 -18 25 -50 70 -70 100 -20 30 -56 81
-80 113 -24 31 -44 61 -44 65 0 4 20 18 44 31 89 49 121 123 108 250 -4 46
-11 60 -44 93 -27 27 -47 38 -67 38 -17 0 -33 5 -36 10 -4 6 -65 10 -151 10
l-144 0 0 -395z m267 358 c12 -7 36 -13 53 -13 20 0 41 -10 63 -31 32 -31 32
-32 30 -121 0 -49 -4 -92 -7 -95 -12 -12 -19 8 -16 44 7 87 3 113 -24 138 -14
13 -26 29 -26 35 0 5 -8 10 -18 10 -10 0 -27 7 -40 15 -26 19 -208 18 -205 -1
1 -7 -7 -20 -17 -29 -19 -17 -20 -17 -20 3 0 11 -3 27 -6 36 -4 11 3 16 33 19
82 8 179 4 200 -10z m16 -45 c38 -22 57 -40 72 -71 17 -34 20 -93 5 -102 -5
-3 -10 -14 -10 -23 -1 -25 -39 -67 -83 -91 -28 -16 -55 -21 -110 -21 l-72 0
-1 160 -1 160 89 0 c52 0 97 -5 111 -12z m-223 -158 c0 -25 -3 -62 -6 -82 -3
-21 -2 -38 3 -38 4 0 14 -13 21 -28 15 -34 -1 -92 -25 -92 -13 0 -14 21 -10
150 2 87 0 153 -5 158 -6 6 -7 20 -2 33 7 22 9 20 16 -16 5 -22 8 -60 8 -85z
m318 -82 c-6 -18 -28 -21 -28 -4 0 9 7 16 16 16 9 0 14 -5 12 -12z m-110 -97
c-9 -15 -7 -24 10 -49 26 -36 27 -42 7 -42 -9 0 -20 11 -24 24 -5 13 -17 26
-25 29 -32 13 -8 56 32 57 9 0 10 -4 0 -19z m-205 -126 c2 -16 -2 -40 -9 -53
-12 -25 -8 -100 7 -116 15 -16 10 -56 -6 -56 -10 0 -15 11 -15 35 0 19 -5 46
-12 60 -9 21 -9 31 0 46 7 10 12 31 12 46 0 30 10 76 16 71 1 -2 4 -17 7 -33z
m269 0 c6 -14 15 -25 19 -25 5 0 15 -15 22 -32 8 -18 21 -39 30 -47 10 -7 17
-20 17 -28 0 -7 7 -16 15 -19 8 -4 15 -11 15 -17 0 -6 10 -21 22 -34 l21 -23
-27 0 c-20 0 -27 4 -23 13 3 8 -10 31 -29 52 -19 21 -34 47 -34 57 0 10 -4 18
-9 18 -12 0 -56 60 -65 88 -10 31 11 29 26 -3z"/>
<path d="M151 4575 c-17 -31 -29 -60 -26 -65 11 -18 34 -10 41 13 3 12 16 35
27 50 17 25 18 30 5 44 -14 13 -19 8 -47 -42z"/>
<path d="M7780 4606 c0 -24 51 -106 66 -106 21 0 17 22 -12 74 -25 44 -54 62
-54 32z"/>
<path d="M82 4418 c-17 -21 -35 -95 -28 -114 6 -15 9 -16 20 -3 17 18 47 109
40 120 -7 13 -20 11 -32 -3z"/>
<path d="M7873 4398 c3 -13 10 -39 14 -58 7 -26 15 -36 32 -38 18 -3 22 0 18
15 -3 10 -11 37 -18 61 -9 31 -17 42 -32 42 -15 0 -18 -5 -14 -22z"/>
<path d="M25 4208 c-2 -7 -6 -37 -10 -65 -5 -48 -4 -53 14 -53 15 0 20 10 26
55 3 30 4 59 0 65 -9 14 -25 13 -30 -2z"/>
<path d="M7936 4212 c-9 -16 6 -111 20 -123 20 -17 26 7 17 70 -8 51 -24 74
-37 53z"/>
<path d="M0 3929 c0 -62 2 -70 18 -67 14 3 18 16 20 71 3 62 1 67 -18 67 -18
0 -20 -6 -20 -71z"/>
<path d="M7960 3935 c0 -36 2 -65 4 -65 2 0 11 -3 20 -6 14 -5 16 4 16 65 0
64 -2 71 -20 71 -18 0 -20 -7 -20 -65z"/>
<path d="M0 3710 c0 -63 2 -70 20 -70 18 0 20 7 20 70 0 63 -2 70 -20 70 -18
0 -20 -7 -20 -70z"/>
<path d="M7964 3766 c-3 -7 -4 -38 -2 -67 2 -42 7 -55 21 -57 15 -3 17 5 17
67 0 57 -3 71 -15 71 -9 0 -18 -6 -21 -14z"/>
<path d="M0 3485 c0 -58 2 -65 20 -65 18 0 20 7 20 65 0 58 -2 65 -20 65 -18
0 -20 -7 -20 -65z"/>
<path d="M7962 3488 c2 -50 6 -63 21 -66 15 -3 17 5 17 62 0 60 -2 66 -20 66
-19 0 -21 -5 -18 -62z"/>
<path d="M0 3265 c0 -58 2 -65 20 -65 18 0 20 7 20 65 0 58 -2 65 -20 65 -18
0 -20 -7 -20 -65z"/>
<path d="M7964 3316 c-3 -7 -4 -35 -2 -62 2 -37 7 -50 21 -52 15 -3 17 5 17
62 0 53 -3 66 -15 66 -9 0 -18 -6 -21 -14z"/>
<path d="M4515 3309 c-137 -6 -180 -17 -285 -68 -88 -42 -210 -156 -254 -236
-54 -99 -81 -178 -101 -301 -19 -114 -19 -172 0 -290 31 -191 86 -307 199
-420 143 -142 277 -194 504 -194 172 0 302 45 396 137 l46 46 14 -35 c8 -19
18 -47 22 -64 4 -16 12 -32 18 -36 19 -13 123 -9 132 5 5 6 7 172 4 367 l-5
355 -282 3 -283 2 0 -90 0 -90 188 -2 187 -3 3 -111 3 -111 -60 -56 c-119
-110 -262 -154 -444 -137 -85 8 -114 16 -172 45 -103 51 -155 106 -212 220
-47 94 -65 182 -65 321 0 138 14 198 69 312 82 169 230 261 423 262 84 0 199
-24 259 -55 68 -35 130 -103 151 -166 l17 -54 98 -3 98 -3 -6 49 c-19 162
-188 327 -387 378 -99 25 -149 29 -275 23z"/>
<path d="M2790 3286 c-144 -43 -249 -114 -327 -219 -168 -229 -208 -550 -102
-837 59 -160 181 -294 333 -365 109 -51 127 -55 276 -62 143 -6 208 6 327 63
73 35 108 59 166 117 88 87 134 161 178 287 l34 95 0 195 c-1 188 -2 198 -29
275 -37 105 -58 146 -118 227 -81 110 -220 201 -355 234 -34 7 -111 13 -183
13 -101 0 -140 -4 -200 -23z m322 -160 c204 -49 335 -220 368 -481 11 -86 10
-114 -4 -204 -9 -57 -28 -131 -42 -165 -88 -207 -259 -314 -474 -297 -182 15
-299 94 -384 257 -49 94 -67 177 -67 314 -1 146 14 218 69 329 97 198 315 299
534 247z"/>
<path d="M5936 3289 c-162 -46 -320 -177 -394 -326 -75 -150 -87 -204 -86
-408 0 -169 2 -185 28 -265 68 -210 188 -352 364 -432 89 -41 177 -58 294 -58
125 0 212 21 320 77 170 87 302 268 345 473 24 115 24 316 -1 425 -46 205
-181 385 -349 466 -115 55 -179 68 -327 68 -93 0 -142 -5 -194 -20z m319 -164
c209 -54 336 -218 366 -472 26 -219 -32 -424 -154 -547 -171 -170 -462 -176
-644 -12 -59 54 -106 131 -140 228 -22 65 -25 89 -25 229 -1 176 10 229 69
342 41 77 123 159 197 196 100 49 228 63 331 36z"/>
<path d="M1242 2558 l3 -713 445 0 445 0 3 83 3 82 -340 0 c-187 0 -346 3
-355 6 -14 6 -16 70 -16 630 l0 624 -95 0 -95 0 2 -712z"/>
<path d="M0 3040 c0 -63 2 -70 20 -70 18 0 20 7 20 70 0 63 -2 70 -20 70 -18
0 -20 -7 -20 -70z"/>
<path d="M7967 3103 c-4 -3 -7 -35 -7 -70 0 -56 2 -63 20 -63 18 0 20 7 20 70
0 52 -3 70 -13 70 -8 0 -17 -3 -20 -7z"/>
<path d="M13 2883 c-9 -3 -13 -27 -13 -69 0 -57 2 -64 20 -64 18 0 20 7 20 64
0 65 -5 77 -27 69z"/>
<path d="M7977 2883 c-26 -7 -21 -126 6 -131 15 -3 17 5 17 67 0 39 -1 70 -2
70 -2 -1 -11 -3 -21 -6z"/>
<path d="M0 2595 c0 -58 2 -65 20 -65 18 0 20 7 20 65 0 58 -2 65 -20 65 -18
0 -20 -7 -20 -65z"/>
<path d="M7964 2646 c-3 -7 -4 -35 -2 -62 2 -37 7 -50 21 -52 15 -3 17 5 17
62 0 53 -3 66 -15 66 -9 0 -18 -6 -21 -14z"/>
<path d="M7 2434 c-4 -4 -7 -36 -7 -71 0 -57 2 -63 20 -63 19 0 21 5 18 67 -3
61 -14 84 -31 67z"/>
<path d="M7973 2433 c-9 -3 -13 -27 -13 -69 0 -57 2 -64 20 -64 18 0 20 7 20
70 0 69 -2 74 -27 63z"/>
<path d="M0 2145 c0 -58 2 -65 20 -65 18 0 20 7 20 65 0 58 -2 65 -20 65 -18
0 -20 -7 -20 -65z"/>
<path d="M7962 2148 c2 -50 6 -63 21 -66 15 -3 17 5 17 62 0 60 -2 66 -20 66
-19 0 -21 -5 -18 -62z"/>
<path d="M2 1923 c2 -53 6 -68 18 -68 12 0 16 15 18 68 3 62 1 67 -18 67 -19
0 -21 -5 -18 -67z"/>
<path d="M7967 1983 c-4 -3 -7 -33 -7 -65 0 -51 2 -58 20 -58 18 0 20 7 20 65
0 47 -4 65 -13 65 -8 0 -17 -3 -20 -7z"/>
<path d="M13 1763 c-9 -3 -13 -27 -13 -69 0 -57 2 -64 20 -64 18 0 20 7 20 64
0 65 -5 77 -27 69z"/>
<path d="M7962 1698 c2 -50 6 -63 21 -66 15 -3 17 5 17 62 0 60 -2 66 -20 66
-19 0 -21 -5 -18 -62z"/>
<path d="M0 1476 c0 -46 4 -65 14 -69 22 -9 26 2 26 70 0 56 -2 63 -20 63 -18
0 -20 -7 -20 -64z"/>
<path d="M7967 1533 c-4 -3 -7 -33 -7 -65 0 -51 2 -58 20 -58 18 0 20 7 20 65
0 47 -4 65 -13 65 -8 0 -17 -3 -20 -7z"/>
<path d="M0 1256 c0 -46 4 -65 14 -69 22 -9 26 2 26 70 0 56 -2 63 -20 63 -18
0 -20 -7 -20 -64z"/>
<path d="M7962 1253 c2 -55 6 -68 21 -71 15 -3 17 5 17 67 0 65 -2 71 -20 71
-19 0 -21 -5 -18 -67z"/>
<path d="M2780 854 l0 -395 41 3 42 3 -2 183 c-2 159 0 182 13 182 21 1 351 1
371 0 13 0 15 -27 15 -186 l0 -185 46 3 45 3 0 390 -1 390 -45 3 -45 3 0 -176
0 -175 -197 2 -198 3 0 173 0 172 -42 0 -43 0 0 -396z m50 212 l0 -155 29 -20
c27 -19 43 -21 206 -21 236 0 225 -10 225 198 0 118 3 152 13 152 10 0 13 -70
11 -357 -2 -365 -17 -502 -22 -204 -2 148 -4 167 -22 183 -17 16 -40 18 -207
18 -250 -1 -234 12 -234 -191 1 -83 3 -155 6 -159 5 -8 -20 -22 -27 -15 -8 9
3 725 12 725 6 0 10 -61 10 -154z"/>
<path d="M3585 855 l0 -395 218 0 217 0 0 35 0 35 -180 0 -180 0 0 150 c0 113
3 150 13 151 6 1 69 0 139 -1 l126 -2 0 36 0 36 -139 0 c-84 0 -139 -4 -139
-10 0 -16 42 -22 148 -18 56 2 102 0 102 -4 0 -5 -53 -8 -119 -8 -93 0 -121
-3 -131 -15 -23 -28 -40 -18 -40 25 0 33 3 40 20 40 19 0 20 7 20 135 l0 135
170 0 170 0 0 35 0 35 -207 0 -208 0 0 -395z m381 358 c-4 -4 -69 -6 -144 -5
-124 2 -140 1 -167 -18 -39 -26 -45 -25 -45 5 l0 25 182 0 c100 0 178 -3 174
-7z m-341 -133 c3 -5 1 -10 -4 -10 -6 0 -11 5 -11 10 0 6 2 10 4 10 3 0 8 -4
11 -10z m0 -90 c3 -5 1 -10 -4 -10 -6 0 -11 5 -11 10 0 6 2 10 4 10 3 0 8 -4
11 -10z m5 -285 c0 -13 -4 -27 -10 -30 -6 -4 -10 8 -10 30 0 22 4 34 10 30 6
-3 10 -17 10 -30z m17 -92 c-3 -10 -5 -4 -5 12 0 17 2 24 5 18 2 -7 2 -21 0
-30z m15 -87 c23 -17 13 -26 -28 -26 -27 0 -31 3 -27 20 6 23 30 25 55 6z"/>
<path d="M4167 858 l3 -393 36 -3 c39 -4 61 9 49 28 -6 10 -9 134 -6 283 l1
37 63 0 63 0 99 -151 c55 -83 106 -162 113 -175 11 -21 20 -24 67 -24 30 0 55
2 55 5 0 3 -21 34 -47 69 -42 55 -203 291 -211 306 -1 4 13 12 33 20 45 18 95
70 112 117 17 51 16 137 -2 172 -21 42 -72 81 -105 81 -16 0 -32 5 -35 10 -4
6 -64 10 -148 10 l-142 0 2 -392z m318 347 c16 -5 35 -14 42 -21 7 -7 18 -14
25 -16 19 -7 24 -159 7 -197 -17 -38 -31 -30 -17 10 6 18 8 54 4 87 -12 100
-79 142 -222 139 -91 -2 -104 -13 -104 -86 -1 -74 -16 -47 -22 37 l-4 63 130
-4 c72 -2 144 -8 161 -12z m-25 -50 c50 -31 60 -51 60 -116 0 -106 -71 -162
-199 -157 l-74 3 -2 140 c-1 77 0 143 2 148 2 4 42 7 89 7 73 0 90 -3 124 -25z
m-241 -176 c-2 -78 -1 -82 26 -103 l28 -22 -28 -26 -28 -26 2 -151 c2 -119 -1
-151 -11 -151 -10 0 -13 54 -13 268 1 239 4 292 21 292 3 0 4 -36 3 -81z m301
-59 c0 -5 -5 -10 -11 -10 -5 0 -7 5 -4 10 3 6 8 10 11 10 2 0 4 -4 4 -10z
m-86 -79 c-5 -21 -1 -34 15 -50 12 -12 21 -25 21 -31 0 -5 5 -10 10 -10 6 0
10 -9 10 -20 0 -11 7 -23 15 -26 8 -4 15 -12 15 -19 0 -6 11 -25 25 -41 27
-31 31 -49 15 -59 -9 -5 -12 1 -9 21 0 3 -14 21 -30 40 -17 19 -31 41 -31 48
0 8 -7 16 -15 20 -8 3 -15 12 -15 20 0 8 -20 35 -45 60 -25 26 -45 48 -45 51
0 3 9 5 20 5 11 0 20 5 20 10 0 6 7 10 15 10 11 0 13 -7 9 -29z m201 -320 c5
0 11 -4 13 -10 8 -25 -38 -9 -59 20 -18 25 -19 33 -8 40 10 6 18 0 29 -21 8
-16 19 -29 25 -29z"/>
<path d="M4860 855 l0 -395 220 0 220 0 0 35 0 35 -177 2 -178 3 -3 148 c-2
135 -1 147 15 148 10 0 73 0 141 -1 l122 -1 0 35 0 35 -137 3 -138 3 -3 138
-3 137 169 0 168 0 1 35 1 35 -209 0 -209 0 0 -395z m386 358 c-4 -4 -69 -6
-144 -4 -126 2 -139 1 -163 -18 -26 -20 -27 -23 -28 -146 -1 -124 -1 -126 25
-150 24 -22 35 -25 143 -28 l116 -3 -121 -2 c-164 -3 -162 -1 -162 -180 0
-129 1 -133 24 -149 35 -22 30 -33 -17 -33 -23 0 -38 4 -34 10 3 5 6 167 6
360 l0 350 181 0 c100 0 178 -3 174 -7z"/>
<path d="M24 1044 c7 -65 11 -74 33 -74 13 0 14 9 8 58 -8 66 -11 72 -32 72
-13 0 -15 -9 -9 -56z"/>
<path d="M7957 1093 c-3 -5 -8 -34 -12 -66 -6 -54 -5 -58 12 -55 12 2 19 13
21 33 1 17 8 40 14 53 10 19 9 25 -2 32 -18 12 -27 12 -33 3z"/>
<path d="M66 881 c-9 -15 32 -116 48 -119 20 -4 20 6 0 74 -14 50 -34 68 -48
45z"/>
<path d="M7901 829 c-17 -52 -18 -61 -5 -66 20 -7 28 3 42 53 16 54 15 74 -2
74 -8 0 -23 -25 -35 -61z"/>
<path d="M140 681 c0 -4 9 -31 21 -59 22 -52 46 -73 55 -48 8 20 -43 116 -61
116 -8 0 -15 -4 -15 -9z"/>
<path d="M7820 634 c-21 -37 -28 -60 -22 -66 14 -14 26 -4 57 48 25 42 28 74
6 74 -5 0 -23 -25 -41 -56z"/>
<path d="M246 491 c-8 -12 62 -101 79 -101 27 0 24 18 -12 64 -34 44 -56 56
-67 37z"/>
<path d="M7697 455 c-36 -42 -41 -65 -14 -65 16 0 88 90 81 101 -11 18 -30 7
-67 -36z"/>
<path d="M7548 314 c-46 -34 -58 -56 -39 -68 13 -8 113 73 108 87 -7 21 -22
16 -69 -19z"/>
<path d="M390 327 c0 -19 87 -100 99 -93 19 12 12 27 -31 67 -44 39 -68 49
-68 26z"/>
<path d="M7358 194 c-49 -25 -59 -40 -34 -50 20 -8 116 43 116 61 0 21 -28 18
-82 -11z"/>
<path d="M565 201 c-9 -16 0 -27 51 -55 47 -26 64 -26 64 -1 0 12 -17 23 -102
63 -3 2 -9 -2 -13 -7z"/>
<path d="M7185 120 c-11 -5 -32 -11 -47 -14 -27 -6 -38 -29 -19 -40 15 -9 116
32 119 48 4 18 -20 20 -53 6z"/>
<path d="M762 93 c3 -16 26 -25 101 -40 24 -5 28 -2 25 12 -2 11 -20 23 -48
31 -62 19 -82 18 -78 -3z"/>
<path d="M6945 61 c-28 -4 -41 -11 -43 -25 -4 -17 1 -18 53 -12 66 7 75 11 75
32 0 15 -15 16 -85 5z"/>
<path d="M965 50 c-10 -17 13 -30 53 -30 18 0 42 -5 53 -10 15 -9 21 -7 25 5
10 24 -6 34 -67 41 -40 5 -59 3 -64 -6z"/>
<path d="M1180 20 c0 -18 7 -20 70 -20 63 0 70 2 70 20 0 18 -7 20 -70 20 -63
0 -70 -2 -70 -20z"/>
<path d="M1410 20 c0 -18 7 -20 65 -20 58 0 65 2 65 20 0 18 -7 20 -65 20 -58
0 -65 -2 -65 -20z"/>
<path d="M1620 20 c0 -18 7 -20 70 -20 63 0 70 2 70 20 0 18 -7 20 -70 20 -63
0 -70 -2 -70 -20z"/>
<path d="M1842 23 c3 -15 14 -18 68 -18 51 0 65 3 65 15 0 12 -16 16 -68 18
-62 3 -68 1 -65 -15z"/>
<path d="M2062 23 c3 -15 16 -19 71 -21 62 -3 67 -1 67 18 0 18 -6 20 -71 20
-62 0 -70 -2 -67 -17z"/>
<path d="M2280 20 c0 -19 5 -21 68 -18 52 2 67 6 67 18 0 12 -15 16 -67 18
-63 3 -68 1 -68 -18z"/>
<path d="M2504 24 c3 -9 6 -18 6 -20 0 -2 29 -4 65 -4 58 0 65 2 65 20 0 18
-7 20 -71 20 -61 0 -70 -2 -65 -16z"/>
<path d="M2720 20 c0 -18 7 -20 70 -20 63 0 70 2 70 20 0 18 -7 20 -70 20 -63
0 -70 -2 -70 -20z"/>
<path d="M2942 23 c3 -15 15 -19 71 -21 62 -3 68 -1 65 15 -3 15 -15 19 -71
21 -62 3 -68 1 -65 -15z"/>
<path d="M3162 23 c3 -15 14 -18 68 -18 51 0 65 3 65 15 0 12 -16 16 -68 18
-62 3 -68 1 -65 -15z"/>
<path d="M3380 20 c0 -18 7 -20 65 -20 58 0 65 2 65 20 0 18 -7 20 -65 20 -58
0 -65 -2 -65 -20z"/>
<path d="M3600 20 c0 -18 7 -20 70 -20 63 0 70 2 70 20 0 18 -7 20 -70 20 -63
0 -70 -2 -70 -20z"/>
<path d="M3820 20 c0 -18 7 -20 70 -20 63 0 70 2 70 20 0 18 -7 20 -70 20 -63
0 -70 -2 -70 -20z"/>
<path d="M4042 23 c3 -15 16 -19 71 -21 62 -3 67 -1 67 18 0 18 -6 20 -71 20
-62 0 -70 -2 -67 -17z"/>
<path d="M4270 20 c0 -18 7 -20 65 -20 58 0 65 2 65 20 0 18 -7 20 -65 20 -58
0 -65 -2 -65 -20z"/>
<path d="M4482 23 c3 -15 15 -19 71 -21 62 -3 68 -1 65 15 -3 15 -15 19 -71
21 -62 3 -68 1 -65 -15z"/>
<path d="M4710 20 c0 -18 7 -20 65 -20 58 0 65 2 65 20 0 18 -7 20 -65 20 -58
0 -65 -2 -65 -20z"/>
<path d="M4920 20 c0 -18 7 -20 70 -20 63 0 70 2 70 20 0 18 -7 20 -70 20 -63
0 -70 -2 -70 -20z"/>
<path d="M5140 20 c0 -18 6 -20 71 -20 62 0 70 2 67 18 -3 14 -16 18 -71 20
-62 3 -67 1 -67 -18z"/>
<path d="M5360 20 c0 -18 7 -20 70 -20 63 0 70 2 70 20 0 18 -7 20 -70 20 -63
0 -70 -2 -70 -20z"/>
<path d="M5580 20 c0 -18 7 -20 70 -20 63 0 70 2 70 20 0 18 -7 20 -70 20 -63
0 -70 -2 -70 -20z"/>
<path d="M5807 34 c-3 -3 -3 -12 0 -20 4 -10 23 -14 69 -14 57 0 64 2 64 20 0
18 -7 20 -63 20 -35 0 -66 -3 -70 -6z"/>
<path d="M6020 20 c0 -18 7 -20 70 -20 63 0 70 2 70 20 0 18 -7 20 -70 20 -63
0 -70 -2 -70 -20z"/>
<path d="M6240 20 c0 -18 7 -20 64 -20 46 0 65 4 69 14 9 22 -2 26 -70 26 -56
0 -63 -2 -63 -20z"/>
<path d="M6460 20 c0 -18 7 -20 70 -20 63 0 70 2 70 20 0 18 -7 20 -70 20 -63
0 -70 -2 -70 -20z"/>
<path d="M6680 20 c0 -18 6 -20 71 -20 62 0 70 2 67 18 -3 14 -16 18 -71 20
-62 3 -67 1 -67 -18z"/>
</g>
</svg>
